PathFileType	4	(X/Y/Z)	Patient4_TMGait_0pt7_01_right_39.trc.trc
DataRate	CameraRate	NumFrames	NumMarkers	Units	OrigDataRate	OrigDataStartFrame	OrigNumFrames
86.419753086420	86.419753086420	4	33	mm	86.419753086420	53	       141
Frame#	Time	Sacral			L.Shoulder			Chest			R.Shoulder			Neck			R.ASIS			L.ASIS			R.Thigh.Superior			R.Thigh.Lateral			R.Thigh.Inferior			R.Patella			L.Thigh.Superior			L.Thigh.Lateral			L.Thigh.Inferior			L.Patella			L.Shank.Superior			L.Shank.Lateral			L.Shank.Inferior			R.Shank.Superior			R.Shank.Lateral			R.Shank.Inferior			R.Heel			R.Midfoot.Superior			R.Midfoot.Lateral			R.Toe			L.Heel			L.Midfoot.Lateral			L.Midfoot.Superior			L.Toe			L.Elbow			L.Wrist			R.Elbow			R.Wrist			
		X1	Y1	Z1	X2	Y2	Z2	X3	Y3	Z3	X4	Y4	Z4	X5	Y5	Z5	X6	Y6	Z6	X7	Y7	Z7	X8	Y8	Z8	X9	Y9	Z9	X10	Y10	Z10	X11	Y11	Z11	X12	Y12	Z12	X13	Y13	Z13	X14	Y14	Z14	X15	Y15	Z15	X16	Y16	Z16	X17	Y17	Z17	X18	Y18	Z18	X19	Y19	Z19	X20	Y20	Z20	X21	Y21	Z21	X22	Y22	Z22	X23	Y23	Z23	X24	Y24	Z24	X25	Y25	Z25	X26	Y26	Z26	X27	Y27	Z27	X28	Y28	Z28	X29	Y29	Z29	X30	Y30	Z30	X31	Y31	Z31	X32	Y32	Z32	X33	Y33	Z33	

53	45.181714285714	857.648513089306	1014.446934078629	528.892855317743	1034.943490933409	1432.878222681986	328.263152639735	1153.176168329368	1359.639051438863	477.591989621990	1094.703268141928	1438.978094972151	659.139617510461	1057.469467704260	1495.236878102492	483.129440743099	1090.294719799638	946.448321633836	628.972469719007	1055.538922298616	961.860433354196	356.270686869167	1114.543248475353	741.427612439820	602.897790905454	1025.474882058175	637.249748593027	663.297187339576	1097.106617627527	580.696413227386	583.116997725610	1089.901555585587	494.536963289069	588.050101576546	1148.940108155492	802.048854321039	375.169484341757	1114.070487417052	674.970760653536	290.345339586753	1229.725406599549	623.547106939335	338.367756251827	1254.682398947832	538.666544187717	326.388206586372	1202.516800433517	461.735075700378	321.557351501889	1071.743532633971	389.897270700179	279.493121965542	1093.467875238433	259.489277665737	328.860671865371	1061.667922832948	406.810864818820	593.229884560433	987.488921561240	303.559207519422	651.614716431939	1030.561028631523	208.983625669208	587.570815673178	894.027932230205	44.619490164948	552.799308366270	1066.291426805596	97.164964670318	589.557964049711	977.287007225039	37.368921755602	626.291299274181	1185.775475489651	41.394539939987	615.932148794777	926.947381815894	150.246319530282	372.972473444802	988.530253597916	123.059190213142	287.660872321019	1089.989545086424	154.198913958561	304.756659713012	1189.182552832455	64.120547692490	266.864703814140	947.210306093391	1089.077457699585	224.029208351761	963.029338493635	828.308288917207	224.185134550078	1175.645724232868	1105.271543498730	790.668725462142	1409.137653965899	1012.450588714141	728.891184745651	
54	45.193285714286	856.961313056688	1014.199849885467	529.250009420908	1033.281753382596	1432.603662038281	328.206816385800	1152.338815300099	1359.360611806855	476.833512849362	1094.802633992687	1438.639603290564	658.692499286245	1056.470250456664	1494.841920917264	482.960807387548	1089.678585447304	945.976324044975	628.672031095485	1054.440500600794	961.584220338481	356.007320371525	1111.254281228165	740.152864092165	601.749949165840	1021.450032972138	636.839595854575	663.057034970536	1091.443513601364	579.573545562587	582.316348665110	1083.276912084494	493.716640945078	587.247304576294	1147.912670957567	802.613701222512	375.572151071856	1114.362972426843	675.386443767583	290.277247095672	1229.667085000674	624.558710596920	339.212050437337	1256.044732732541	541.369518704382	327.122424563653	1207.519523633419	463.645693756605	321.177087036174	1081.864231775576	384.541610385972	277.221181689916	1111.280951268491	255.051678140325	325.673072895480	1054.660465958845	406.074267606619	592.657448855703	980.382683346431	303.098315778243	651.375186731144	1022.765924524187	208.418120353143	587.121767580937	885.732586743890	44.218305398143	552.755549800889	1057.865232909832	97.089427545631	589.387698003612	968.982968235919	37.261999611418	626.367342901171	1177.466871506808	41.689561284595	615.910281337293	951.716538866034	135.618644948575	367.579289583678	1015.397001709610	112.783091289742	282.599784106509	1114.660598563333	149.667174631141	300.768367080191	1219.253626437652	65.764969164255	263.159357510241	937.148462836729	1091.256743799513	224.261993666011	942.711049077967	830.350822131310	225.856725516860	1186.568634503987	1108.200622444470	788.809416132284	1423.894905437555	1029.889510753514	722.872295428056	
55	45.204857142857	856.353645436489	1013.815833200197	529.496957333168	1031.649348323380	1432.250224641940	328.059326279147	1151.555832724961	1358.943877262822	475.939897314302	1094.971524628314	1438.137784902360	658.133399853977	1055.512208969548	1494.311980661667	482.723422975914	1089.183109965809	945.364382966228	628.161971113164	1053.388534116695	961.092257676042	355.558775487222	1108.030190409148	738.786486680849	600.492187386149	1017.468542246434	636.380968422948	662.780894922573	1085.733932862062	578.401966634418	581.442400615468	1076.619218167292	492.851233620670	586.411353370868	1146.617402125148	802.424369872827	375.918930702980	1114.121519666633	675.183369801683	290.167726298843	1228.788538618033	624.573165437635	340.314530237177	1256.452251722280	543.257191327688	328.101653493456	1211.645682785382	465.113225282580	320.971495335194	1091.818349340165	378.903872434992	274.859982602099	1128.942870977730	250.876560377095	322.611467166999	1047.620116174683	405.322889122367	592.076222282037	973.276301468191	302.592664601581	651.161077589684	1014.923187261187	207.825011750518	586.656368475372	877.421341529305	43.807939746988	552.707731441881	1049.405899178331	96.998593712180	589.199843141385	960.670830235138	37.146494825126	626.442693756113	1169.151024362968	42.009630108504	615.870352063642	977.087371053084	121.537722381903	362.090956067910	1042.802309925101	103.180117151428	277.630281751438	1139.412888776947	145.762654510509	297.040738882985	1249.165174351874	68.408712060712	260.080920689141	927.254089073430	1093.670550331435	224.228541998074	923.564168060258	833.014436009667	227.824785447742	1197.057855983974	1111.232423601884	786.692669728267	1437.266998114230	1047.357182478963	716.797875313508	
56	45.216428571429	855.833828596550	1013.312441298988	529.639182123768	1030.062160495752	1431.829888448827	327.805551390657	1150.831534560477	1358.406389243427	474.905580414779	1095.214219938442	1437.498196316399	657.451394901064	1054.615438305822	1493.668375112141	482.397791703160	1088.823377795828	944.645595262285	627.445746954172	1052.380370216617	960.409251272147	354.923007886050	1104.936873008516	737.364651365745	599.172132532382	1013.590126462626	635.891097098913	662.470245223112	1080.080403681983	577.208726711159	580.525507088068	1070.035413178008	491.955425991424	585.565248195013	1145.071310308741	801.527859593875	376.192249468004	1113.360866597765	674.418039418471	289.962214368664	1227.144730028299	623.671851736532	341.580000637268	1255.975827347173	544.391296820989	329.238585034223	1214.926867396309	466.183978401286	320.907419358584	1101.556310355222	373.152803510261	272.452084829288	1146.261374894377	247.135877479633	319.777200413466	1040.636995646013	404.577735833801	591.502255434559	966.234709760868	302.076323165682	650.983591445677	1007.081584598040	207.225890205694	586.191207061220	869.105071264835	43.420891011115	552.666126251028	1040.939667379835	96.900597854190	589.010695908334	952.360826996464	37.030000333869	626.515653567540	1160.839275753402	42.332929680822	615.817572107850	1002.747495329420	108.344443835586	356.702180119862	1070.422426206905	94.494558636041	272.949817905084	1163.953058260982	142.658322020753	293.715568770484	1278.553998798204	72.135399166016	257.802363778843	917.628336126229	1096.269560262488	224.009567834482	905.574664127057	836.132156540587	230.044763327904	1207.075653878654	1114.317171499096	784.315859633115	1449.264315322671	1064.666185559952	710.733871969422	
